<svg xmlns="http://www.w3.org/2000/svg" xmlns:xlink="http://www.w3.org/1999/xlink" width="100%" height="100%" fill-rule="evenodd" stroke-linejoin="round" stroke-miterlimit="1.414" clip-rule="evenodd" version="1.1" viewBox="0 0 217 233" xml:space="preserve"><path fill-rule="nonzero" d="M107.865,0C78.204,0.243 49.672,3.454 33.045,11.09C33.045,11.09 0.068,25.842 0.068,76.172C0.068,87.697 -0.156,101.478 0.209,116.092C1.406,165.312 9.233,213.82 54.74,225.865C75.723,231.419 93.737,232.581 108.246,231.783C134.557,230.324 149.328,222.395 149.328,222.395L148.459,203.305C148.459,203.305 129.657,209.232 108.541,208.51C87.62,207.792 65.534,206.255 62.15,180.568C61.838,178.312 61.682,175.899 61.682,173.365C61.682,173.365 82.219,178.386 108.246,179.578C124.161,180.308 139.085,178.645 154.244,176.836C183.314,173.365 208.625,155.454 211.807,139.088C216.819,113.307 216.406,76.172 216.406,76.172C216.406,25.842 183.432,11.09 183.432,11.09C166.805,3.454 138.255,0.243 108.594,0L107.865,0ZM59.956,27.596C72.983,21.2 158.787,17.93 170.27,26.89C177.178,32.281 178.11,47.597 161.732,53.043C143.357,59.154 100.461,29.738 78.379,55.31C59.928,76.678 59.636,100.679 72.602,118.376C86.263,137.022 139.539,110.625 154.618,114.033C170.268,117.571 164.599,143.627 154.286,147.251C130.96,155.447 69.847,154.315 52.786,142.491C33.721,129.278 37.849,91.392 38.607,81.455C40.948,50.749 48.518,33.211 59.956,27.596Z"/></svg>