<svg xmlns="http://www.w3.org/2000/svg" xmlns:xlink="http://www.w3.org/1999/xlink" width="100%" height="100%" version="1.1" viewBox="0 0 1198 807" xml:space="preserve" style="fill-rule:evenodd;clip-rule:evenodd;stroke-linecap:round;stroke-linejoin:round;stroke-miterlimit:10"><path id="path6078" d="M482.416,557.4C440.116,526.1 392.516,501.7 341.216,484.9C288.016,467.5 232.116,458.7 174.916,458.7C115.216,458.7 57.016,468.3 1.816,487.2L1.816,803.1L647.416,803.1C625.816,707.4 567.316,620.2 482.416,557.4Z" style="fill:#fff;fill-rule:nonzero"/><path id="path6082" d="M515.716,589.8C514.616,593.1 509.316,594.9 508.316,594L508.116,586.9L508.316,583.3C422.216,508.7 304.616,462.7 174.916,462.7C113.916,462.7 55.516,472.9 1.816,491.5L1.816,805.1L643.716,805.1C625.316,721.9 580.016,647.9 515.716,589.8" style="fill:#587faa;fill-rule:nonzero;stroke:#000;stroke-width:2px"/><path id="path6084" d="M351.516,565.1L360.816,569.9" style="fill:none;fill-rule:nonzero;stroke:#2d3f68;stroke-width:3px"/><path id="path6086" d="M336.516,558C338.716,559 340.916,560 343.016,561" style="fill:none;fill-rule:nonzero;stroke:#2d3f68;stroke-width:3px"/><path id="path6088" d="M321.516,551.5C324.116,552.5 326.616,553.6 329.216,554.7" style="fill:none;fill-rule:nonzero;stroke:#2d3f68;stroke-width:3px"/><path id="path6090" d="M304.816,545.1C308.216,546.3 311.516,547.6 314.816,548.8" style="fill:none;fill-rule:nonzero;stroke:#2d3f68;stroke-width:3px"/><g id="g6092" transform="matrix(1,0,0,1,-1343.38,-75.8)"><path id="path6094" d="M1890.4,836.8C1892.3,840.7 1894.2,844.6 1895.9,848.5" style="fill:none;fill-rule:nonzero;stroke:#2d3f68;stroke-width:3px"/><path id="path6100" d="M1880.9,818.7C1882.4,821.4 1883.8,824.1 1885.3,826.8" style="fill:none;fill-rule:nonzero;stroke:#2d3f68;stroke-width:3px"/><path id="path6102" d="M1871.4,802.4C1873.2,805.3 1874.9,808.2 1876.6,811.2" style="fill:none;fill-rule:nonzero;stroke:#2d3f68;stroke-width:3px"/><path id="path6104" d="M1860.3,785.1C1862.3,788 1864.3,791 1866.2,794" style="fill:none;fill-rule:nonzero;stroke:#2d3f68;stroke-width:3px"/><path id="path6106" d="M1848.4,768.6C1850.6,771.5 1852.7,774.4 1854.8,777.4" style="fill:none;fill-rule:nonzero;stroke:#2d3f68;stroke-width:3px"/><path id="path6108" d="M1834.4,751C1837,754.1 1839.6,757.3 1842.1,760.5" style="fill:none;fill-rule:nonzero;stroke:#2d3f68;stroke-width:3px"/></g><path id="path6110" d="M156.616,523.5C102.016,523.5 49.916,533.6 1.816,551.9L1.816,805L561.316,805C501.816,640.9 343.116,523.5 156.616,523.5Z" style="fill:#2d3f68;fill-rule:nonzero"/><g id="g6116" transform="matrix(1,0,0,1,-1343.38,-75.8)"><circle id="circle6118" cx="2236.6" cy="645.4" r="33.8" style="fill:#ebb548;stroke:#663f09;stroke-width:3.31px"/><g id="g6120"><path id="path6122" d="M2243.3,641.5C2240.9,635.9 2235.3,635.3 2227.5,638.3C2221.8,640.5 2209.3,645.6 2203,648.2C2203.7,656.4 2207.3,663.7 2212.7,669.2C2219.4,666.6 2234,661 2244.7,656.6C2259,650.7 2257.6,647.5 2254.9,642.5C2252.2,637.5 2243.3,641.5 2243.3,641.5Z" style="fill:#ad6a3b;fill-rule:nonzero;stroke:#663f09;stroke-width:1.65px;stroke-linecap:butt;stroke-linejoin:miter"/><path id="path6124" d="M2243.4,612.3C2230.8,616.7 2230.3,619.6 2232.2,623.9C2234.3,628.5 2241.6,626.5 2247.6,624C2250.2,623 2254.4,621.2 2258.3,619.5C2254.1,616 2249.1,613.4 2243.4,612.3Z" style="fill:#ad6a3b;fill-rule:nonzero;stroke:#663f09;stroke-width:1.65px;stroke-linecap:butt;stroke-linejoin:miter"/></g><g id="g6126"><circle id="circle6128" cx="2218.8" cy="627.7" r="3" style="fill:#fff"/></g></g><g id="g6130" transform="matrix(1,0,0,1,-1343.38,-75.8)"><circle id="circle6132" cx="2402.5" cy="485.8" r="33.8" style="fill:#ebb548;stroke:#663f09;stroke-width:3.31px"/><g id="g6134"><circle id="circle6136" cx="2384.8" cy="468.2" r="3" style="fill:#fff"/></g></g><path id="path6138" d="M292.316,506.3C289.616,506.3 285.616,505.9 282.516,502.8C279.616,499.8 278.316,495.2 278.516,488.8C278.616,486.6 278.716,484.7 278.716,482.9C275.816,482.5 272.916,482 270.116,481.2C252.716,476.5 238.616,464.9 230.516,448.4C229.516,446.3 228.516,444.2 227.716,442C227.116,442 226.516,442 226.016,442.1C225.116,444.3 224.216,446.4 223.216,448.5C215.116,465 201.116,476.6 183.616,481.3C180.816,482.1 177.916,482.6 175.016,483C175.116,484.7 175.116,486.7 175.216,488.9C175.516,495.3 174.216,499.9 171.216,502.9C168.116,506.1 164.116,506.4 161.416,506.4L149.616,506.4C136.516,506.4 136.516,496.7 136.516,491.5L136.516,476.8C134.516,475.9 132.616,474.9 130.816,473.8C129.216,476.5 126.316,479.4 121.516,480.7C116.716,481.9 112.616,482.5 109.016,482.5C104.516,482.5 100.716,481.5 97.816,479.6C94.516,477.4 92.416,473.9 91.816,469.5C90.316,459 91.216,451.9 94.416,447.7C96.216,445.4 98.616,444.1 101.516,443.8L107.016,443.3C97.116,441.5 91.616,435.6 90.616,425.8C89.816,417.7 97.216,408.9 101.616,407.2C102.716,406.7 103.816,406.5 104.716,406.5C106.516,406.5 107.916,407.3 108.916,408.7C109.916,410.1 110.816,413 106.716,417.1C106.016,418 103.416,423.6 104.916,427C105.716,428.7 107.616,429.7 110.716,430.1C112.616,423 116.516,417.3 122.116,413.5L121.616,413.5C117.816,413.5 114.616,412.2 112.416,409.7C110.216,407.2 109.216,403.7 109.716,399.8C110.316,395.3 110.316,388.3 109.716,377.9C109.016,364.6 113.916,354.5 122.716,351.6C124.916,350.9 127.116,350.5 129.316,350.5C132.516,350.5 135.716,351.3 138.616,352.7L138.716,352.6C137.216,349.5 136.816,346.1 137.616,343.1C138.316,340.5 141.016,334.2 151.416,333C152.816,332.8 154.916,332.7 157.516,332.7C159.616,329.4 162.916,325.1 166.716,322.9C166.816,322.2 166.816,321.7 166.916,321.2C165.616,318.2 165.516,315.5 166.616,313.2C167.316,311.6 169.016,309.5 172.616,308.6C173.316,308.4 174.116,308.3 174.816,308.3C177.716,308.3 180.416,309.7 182.516,312.3C182.916,312.2 183.216,312.2 183.616,312.2L184.116,312.2C186.716,312.4 189.116,313.7 190.716,316C192.916,319 192.016,323.1 188.716,326.5C189.016,329.6 190.216,332.2 192.216,334.2C192.716,334.7 193.416,335.2 194.116,335.7C198.816,336.4 202.916,337.3 206.616,338.2C209.416,338.9 211.916,339.4 213.716,339.6C215.016,339.8 216.516,339.8 218.116,339.8C225.616,339.8 235.516,338.1 240.916,333.3C243.116,331.4 244.316,329.1 244.716,326.4C241.916,323.5 241.316,319.8 243.116,316.8C243.716,315.8 245.516,312.8 248.916,312.2C249.316,312.1 249.716,312.1 250.116,312.1C250.516,312.1 250.916,312.1 251.316,312.2C253.316,310.2 255.516,309.1 257.816,309.1C258.616,309.1 259.416,309.2 260.216,309.5C262.716,310.3 264.816,312.1 265.916,314.4C266.816,316.3 267.016,318.5 266.416,320.7C266.716,323.1 267.316,328.5 266.516,335.2C274.416,335.4 282.216,337.9 290.216,342.8C291.716,343.7 293.016,344.6 294.316,345.5C295.216,345.2 296.216,344.9 297.316,344.7C298.916,344.4 300.516,344.2 302.016,344.2C309.016,344.2 318.416,347.8 323.716,364.9C325.116,369.6 326.616,373.1 327.716,376C330.416,382.6 332.516,387.9 326.616,393.1C322.716,396.5 318.916,398.3 315.116,398.3C313.816,398.3 312.616,398.1 311.416,397.7L311.416,397.8C327.716,401.2 338.616,412.5 342.716,429.9C346.116,429.6 348.216,428.5 349.016,426.7C350.516,423.3 348.016,417.7 347.116,416.7C343.116,412.7 344.116,409.8 345.016,408.4C345.916,407 347.416,406.2 349.216,406.2C350.216,406.2 351.216,406.4 352.316,406.9C356.616,408.6 364.116,417.5 363.316,425.5C362.316,435.3 356.816,441.2 346.816,443L352.316,443.6C355.116,443.9 357.616,445.2 359.416,447.5C362.716,451.7 363.516,458.8 362.016,469.3C361.416,473.7 359.316,477.2 356.016,479.4C353.116,481.3 349.416,482.3 344.916,482.3C341.316,482.3 337.216,481.7 332.416,480.5C327.616,479.3 324.716,476.3 323.116,473.6C321.216,474.7 319.316,475.7 317.416,476.6L317.416,491.3C317.416,496.5 317.416,506.2 304.316,506.2L293.516,506.2C293.016,506.3 292.716,506.3 292.316,506.3Z" style="fill:#fff;fill-rule:nonzero"/><g id="g6140" transform="matrix(1,0,0,1,-1343.38,-75.8)"><path id="path6142" d="M1527.8,400.3C1527.8,400.3 1532.6,396.6 1530.7,394C1528.8,391.4 1525.7,391.5 1524.2,393.1C1524.2,393.1 1521.8,387 1517,388.2C1513.3,389.1 1512.4,391.9 1514.6,396.1C1514.6,396.1 1506.2,438.5 1549.8,449.2L1554.4,419.6C1542.7,419.7 1527.8,415.8 1527.8,400.3Z" style="fill:#fbc16c;fill-rule:nonzero;stroke:#946f3a;stroke-width:2.39px"/><g id="g6144"><path id="path6146" d="M1695.3,523.5C1689.3,522.9 1683.4,522.3 1683.4,522.3C1683.4,522.3 1687,481.7 1650.6,476.9C1651.2,442.3 1648.2,432.1 1631.5,422C1607.8,407.6 1592.8,419.8 1582.7,421C1581.4,421.2 1579.8,421.3 1578,421.3L1570.4,449.2C1570.4,449.2 1561.1,488.3 1577.9,522.3C1594.6,556.3 1636.4,564.7 1668.6,543.2C1668.6,543.2 1669.8,550.4 1677,552.2C1684.2,554 1699.7,557 1701.5,544.4C1703.1,531.9 1701.3,524.1 1695.3,523.5Z" style="fill:#876a4d;fill-rule:nonzero;stroke:#3b3024;stroke-width:2.39px"/></g><path id="path6148" d="M1474.2,489.2C1473.6,454.6 1474.2,432.5 1499.3,420.6C1524.4,408.7 1546.5,418.2 1556.6,419.4C1566.7,420.6 1592.4,418.2 1592.4,400.3C1592.4,400.3 1588.3,397.5 1590.1,394.7C1591.8,391.9 1593.5,391.1 1596,393.1C1596,393.1 1598.7,388 1602.3,389.2C1604.8,390 1606.9,392.5 1605.5,396.1C1605.5,396.1 1613.9,438.5 1570.3,449.2C1570.3,449.2 1579.6,488.3 1562.8,522.3C1546.1,556.3 1504.3,564.7 1472.1,543.2C1472.1,543.2 1470.9,550.4 1463.7,552.2C1456.5,554 1441,557 1439.2,544.4C1437.4,531.9 1439.2,524.1 1445.2,523.5C1451.2,522.9 1457.1,522.3 1457.1,522.3C1457.1,522.3 1452.4,496.7 1474.2,489.2Z" style="fill:#fbc16c;fill-rule:nonzero;stroke:#946f3a;stroke-width:2.39px"/><path id="path6150" d="M1510,553.9C1497,553.9 1484.1,549.9 1472.8,542.3L1471.3,541.3L1471,543.1C1471,543.4 1469.8,549.5 1463.5,551.1C1459.1,552.2 1455.5,552.7 1452.4,552.7C1445.2,552.7 1441.3,550 1440.5,544.3C1438.9,533.3 1440.5,528.6 1442.1,526.6C1443,525.5 1444.1,524.9 1445.5,524.8L1458.7,523.5L1458.5,522.2C1458.5,522 1456.1,508.7 1463,499C1462.3,503.7 1463.2,508.5 1465.6,512.6C1468.4,517.3 1474.5,523.3 1487.7,525C1491.9,525.5 1496.1,525.9 1500.3,525.8C1540.9,524.8 1551.9,517.4 1553.6,498.8L1569.3,500.3C1567.6,508.1 1565.2,515.4 1561.9,522C1551.9,541.9 1532.6,553.9 1510,553.9Z" style="fill:#e09c5c;fill-rule:nonzero"/><path id="path6152" d="M1630.6,553.9C1643.6,553.9 1656.5,549.9 1667.8,542.3L1669.3,541.3L1669.6,543.1C1669.6,543.4 1670.8,549.5 1677.1,551.1C1681.5,552.2 1685.1,552.7 1688.2,552.7C1695.4,552.7 1699.3,550 1700.1,544.3C1701.7,533.3 1700.1,528.6 1698.5,526.6C1697.6,525.5 1696.5,524.9 1695.1,524.8L1681.9,523.5L1682.1,522.2C1682.1,522 1684.5,508.7 1677.6,499C1678.3,503.7 1677.4,508.5 1675,512.6C1672.2,517.3 1666.1,523.3 1652.9,525C1648.7,525.5 1644.5,525.9 1640.3,525.8C1599.7,524.8 1588.7,517.4 1587,498.8L1571.3,500.3C1573,508.1 1575.4,515.4 1578.7,522C1588.7,541.9 1608,553.9 1630.6,553.9Z" style="fill:#6e5a3d;fill-rule:nonzero"/><path id="path6154" d="M1484,544.4L1484,567.1C1484,573.7 1484.6,577.8 1493,577.8L1503.1,577.8C1506.6,577.8 1515,579 1514.4,564.7C1513.8,550.4 1513.8,545.6 1513.8,545.6" style="fill:#e09c5c;fill-rule:nonzero;stroke:#946f3a;stroke-width:2.39px"/><path id="path6160" d="M1460.2,515.2C1446.5,515.8 1439.2,511.6 1438.1,500.9C1437.5,494.9 1443.5,487.8 1446.5,486.6C1449.5,485.4 1449.5,487.2 1447.1,489.6C1444.7,492 1436.4,511.1 1459,509.9" style="fill:#e09c5c;fill-rule:nonzero;stroke:#946f3a;stroke-width:2.39px"/><path id="path6162" d="M1581.8,460.8C1581.7,460 1581.4,459.1 1582,458.5C1582.6,457.9 1583.1,458 1584,458C1589.8,458.1 1605.1,458.2 1608,458.4C1611.6,458.5 1611.1,461.3 1609.6,464.4C1605.7,472 1603.2,475.9 1595.4,475.8C1588.9,475.7 1583,469.6 1581.8,460.8Z" style="fill:#33281d;fill-rule:nonzero;stroke:#3b3024;stroke-width:2.39px"/><path id="path6164" d="M1609.5,464.4C1605.6,472 1603.1,475.9 1595.3,475.8C1594.3,475.8 1593.3,475.6 1592.3,475.3C1592.2,474.4 1592.1,473.6 1592.1,472.7C1592.1,467.1 1594.3,462 1597.9,458.2C1602.4,458.3 1606.5,458.3 1607.8,458.4C1611.5,458.5 1611.1,461.3 1609.5,464.4Z" style="fill:#693131;fill-rule:nonzero;stroke:#3b3024;stroke-width:2.39px"/><path id="path6166" d="M1680.4,515.2C1694.1,515.8 1701.4,511.6 1702.5,500.9C1703.1,494.9 1697.1,487.8 1694.1,486.6C1691.1,485.4 1691.1,487.2 1693.5,489.6C1695.9,492 1704.2,511.1 1681.6,509.9" style="fill:#876a4d;fill-rule:nonzero;stroke:#3b3024;stroke-width:2.39px"/><path id="path6168" d="M1488.2,439.4C1482.8,431 1474.5,428.7 1467.3,431C1460.1,433.4 1456.6,442.3 1457.2,453.1C1457.8,463.8 1457.8,471 1457.2,475.8C1456.6,480.6 1459,484.8 1465,484.8C1471,484.8 1472.2,480.6 1472.2,480.6C1472.2,480.6 1474,483 1477.6,483C1481.2,483 1487.7,480.6 1488.3,472.9C1488.9,465.2 1488.9,463.9 1488.9,463.9" style="fill:#fbc16c;fill-rule:nonzero;stroke:#946f3a;stroke-width:2.39px"/><path id="path6170" d="M1595,506.2C1588.2,513.1 1571.9,514.3 1561.2,513.5C1550.5,512.7 1552.7,506.4 1552.7,497.4C1552.7,491.9 1557,490.9 1563.5,490.1C1570,489.3 1582.5,489.7 1588.7,485.3" style="fill:#876a4d;fill-rule:nonzero;stroke:#3b3024;stroke-width:2.39px"/><path id="path6172" d="M1548.5,478.8C1563.4,478.8 1572.4,477 1577.7,476.4C1583.1,475.8 1590.8,477.6 1590.8,486C1590.8,495.6 1587.2,498.5 1576.5,500.3C1565.8,502.1 1555,502.1 1546.1,501.5" style="fill:#fbc16c;fill-rule:nonzero;stroke:#946f3a;stroke-width:2.39px"/><path id="path6174" d="M1623.7,467.4C1615.6,475.5 1608.2,476.4 1599.8,473.4C1591.4,470.4 1589.1,463.3 1589.7,457.9C1590.3,452.5 1593.9,451.9 1595.7,456.7C1597.5,461.5 1598.7,464.5 1606.4,465.7C1610.6,466.3 1613.6,463.3 1617.1,460.3C1620.7,457.3 1623.1,457.3 1624.9,459.7C1627,462.5 1626.1,465 1623.7,467.4Z" style="fill:#fff;fill-rule:nonzero;stroke:#7d7d65;stroke-width:2.39px"/><path id="path6176" d="M1515.1,456.1C1515.1,456.1 1512.7,450.1 1511.5,446C1510.3,441.8 1509.7,438.8 1513.3,437.6C1516.9,436.4 1519.3,438.8 1521.1,443C1522.9,447.2 1524.7,453.1 1524.7,453.1" style="fill:none;fill-rule:nonzero;stroke:#402f19;stroke-width:2.99px"/><path id="path6178" d="M1557,460.8C1557.1,460 1557.4,459.1 1556.8,458.5C1556.2,457.9 1555.7,458 1554.8,458C1549,458.1 1533.7,458.2 1530.8,458.4C1527.2,458.5 1527.7,461.3 1529.2,464.4C1533.1,472 1535.6,475.9 1543.4,475.8C1549.9,475.7 1555.9,469.6 1557,460.8Z" style="fill:#544024;fill-rule:nonzero;stroke:#946f3a;stroke-width:2.39px"/><path id="path6180" d="M1632.1,440C1630.3,432.2 1633.3,426.3 1641.7,424.5C1650.1,422.7 1658.4,426.3 1663.2,441.8C1668,457.3 1672.8,460.9 1667.4,465.7C1662,470.5 1657.3,471.1 1652.5,467.5C1652.5,467.5 1648.3,471.7 1644.1,468.1C1639.9,464.5 1639.9,460.3 1639.9,460.3" style="fill:#876a4d;fill-rule:nonzero;stroke:#3b3024;stroke-width:2.39px"/><path id="path6182" d="M1605.4,452C1605.4,445.1 1606.1,434.1 1611.4,433.5C1616.7,432.9 1618.3,436.3 1617.8,442.3C1617.3,448.3 1616.8,454.2 1616.8,454.2" style="fill:none;fill-rule:nonzero;stroke:#402f19;stroke-width:2.99px"/><path id="path6184" d="M1529.3,464.4C1533.2,472 1535.7,475.9 1543.5,475.8C1544.5,475.8 1545.5,475.6 1546.5,475.3C1546.6,474.4 1546.7,473.6 1546.7,472.7C1546.7,467.1 1544.5,462 1540.9,458.2C1536.4,458.3 1532.3,458.3 1531,458.4C1527.3,458.5 1527.7,461.3 1529.3,464.4Z" style="fill:#693131;fill-rule:nonzero;stroke:#381916;stroke-width:2.39px"/><path id="path6186" d="M1557,460.8C1557.1,460 1557.4,459.1 1556.8,458.5C1556.2,457.9 1555.7,458 1554.8,458C1549,458.1 1533.7,458.2 1530.8,458.4C1527.2,458.5 1527.7,461.3 1529.2,464.4C1533.1,472 1535.6,475.9 1543.4,475.8C1549.9,475.7 1555.9,469.6 1557,460.8Z" style="fill:none;fill-rule:nonzero;stroke:#3b3024;stroke-width:2.39px"/><path id="path6188" d="M1504.9,467.4C1513,475.5 1520.4,476.4 1528.8,473.4C1537.2,470.4 1539.5,463.3 1538.9,457.9C1538.3,452.5 1534.7,451.9 1532.9,456.7C1531.1,461.5 1529.9,464.5 1522.2,465.7C1518,466.3 1515,463.3 1511.5,460.3C1507.9,457.3 1505.5,457.3 1503.7,459.7C1501.6,462.5 1502.5,465 1504.9,467.4Z" style="fill:#fff;fill-rule:nonzero;stroke:#7d7d65;stroke-width:2.39px"/><path id="path6190" d="M1490,431.3C1482.9,426.1 1481.6,414.3 1495.3,412.7C1498,412.4 1503.3,412.5 1503.3,412.5C1503.3,412.5 1509.7,401 1515,401.5C1520.3,402 1520.5,406.7 1519.3,409C1519.3,409 1525.2,409.2 1523.7,415.9C1523.1,418.7 1520.1,420.1 1520.1,420.1" style="fill:#fbc16c;fill-rule:nonzero;stroke:#946f3a;stroke-width:2.39px"/><path id="path6192" d="M1499.9,459.7L1496.2,461.1C1495.3,461.5 1494.2,461 1493.9,460.1L1493.8,459.8C1493.4,458.9 1493.9,457.8 1494.8,457.5L1498.5,456.1C1499.4,455.7 1500.5,456.2 1500.8,457.1L1500.9,457.4C1501.3,458.3 1500.8,459.3 1499.9,459.7Z" style="fill:#e68a4c;fill-rule:nonzero"/><path id="path6194" d="M1630.2,459.7L1633.9,461.1C1634.8,461.5 1635.9,461 1636.2,460.1L1636.3,459.8C1636.7,458.9 1636.2,457.8 1635.3,457.5L1631.6,456.1C1630.7,455.7 1629.6,456.2 1629.3,457.1L1629.2,457.4C1628.8,458.3 1629.3,459.3 1630.2,459.7Z" style="fill:#805945;fill-rule:nonzero"/><path id="path6196" d="M1592.7,412.4C1593,411.8 1593.4,411.1 1593.6,410.4" style="fill:none;fill-rule:nonzero;stroke:#fbd7a3;stroke-width:2.39px"/><path id="path6198" d="M1588.8,417.1C1589.6,416.4 1589.8,416.4 1590.5,415.5" style="fill:none;fill-rule:nonzero;stroke:#fbd7a3;stroke-width:2.39px"/><path id="path6200" d="M1576.3,423C1578.8,422.4 1581.2,421.6 1583.3,420.6" style="fill:none;fill-rule:nonzero;stroke:#fbd7a3;stroke-width:2.39px"/><path id="path6202" d="M1560.5,424.8C1562.2,424.9 1564,424.8 1565.9,424.6C1567.2,424.5 1568.5,424.3 1569.8,424.1" style="fill:none;fill-rule:nonzero;stroke:#fbd7a3;stroke-width:2.39px"/><path id="path6204" d="M1533,419.3C1539.5,419.9 1544.4,421.5 1549.3,422.9" style="fill:none;fill-rule:nonzero;stroke:#fbd7a3;stroke-width:2.39px"/><path id="path6206" d="M1627.4,425.2C1628.1,425.7 1628.8,426.1 1629.5,426.7" style="fill:none;fill-rule:nonzero;stroke:#b58e67;stroke-width:2.39px"/><path id="path6208" d="M1621.5,422.2C1622.4,422.6 1623.4,423 1624.3,423.5" style="fill:none;fill-rule:nonzero;stroke:#b58e67;stroke-width:2.39px"/><path id="path6210" d="M1607.9,419.7C1610.3,419.8 1612.7,420 1615.2,420.4" style="fill:none;fill-rule:nonzero;stroke:#b58e67;stroke-width:2.39px"/><path id="path6212" d="M1656.5,544.4L1656.5,567.1C1656.5,573.7 1655.9,577.8 1647.5,577.8L1637.4,577.8C1633.9,577.8 1625.5,579 1626.1,564.7C1626.7,550.4 1626.7,545.6 1626.7,545.6" style="fill:#6e5a3d;fill-rule:nonzero;stroke:#3b3024;stroke-width:2.39px"/></g><g id="g6532" transform="matrix(1,0,0,1,-1343.38,-75.8)"><circle id="circle6534" cx="1949" cy="500.8" r="103.3" style="fill:#4a77ab;stroke:#132137;stroke-width:3px"/><circle id="circle6536" cx="1949" cy="500.8" r="74.7" style="fill:#51a1b5"/><g id="g6538"><path id="path6540" d="M2005.2,459.7C2009,469.6 2020.1,469.3 2035.1,464.6C2038.5,463.5 2041.6,462.5 2044.4,461.5C2041,453.2 2036.5,445.5 2031.2,438.5C2012.3,443.7 2001.8,450.8 2005.2,459.7Z" style="fill:#75bd8c;fill-rule:nonzero;stroke:#132137;stroke-width:4px"/><path id="path6542" d="M2017,544.7C2011.1,555.7 2017.3,563.5 2027.9,567.4C2035.5,558.4 2041.6,548 2045.8,536.8C2035,536 2021.3,536.7 2017,544.7Z" style="fill:#e0b779;fill-rule:nonzero;stroke:#132137;stroke-width:4px"/><path id="path6544" d="M2003.9,420.2C2004.3,418 2004.4,415.8 2004.4,413.7C1986.6,402.4 1965.1,396.4 1942.4,397.8C1923.4,399 1905.9,405.3 1891.2,415.3C1890.8,428.1 1893.6,437.1 1905,440.3C1920.7,444.7 1931.4,440 1931.4,440C1931.4,440 1933.5,452.3 1954.4,453.1C1975.3,453.9 1975.3,438.3 1975.3,438.3C1975.3,438.3 2000.3,441.6 2003.9,420.2Z" style="fill:#e0b779;fill-rule:nonzero;stroke:#132137;stroke-width:4px"/></g><path id="path6546" d="M2001.9,491.9C2002.3,500 1998.2,505.9 1988.3,509.6C1978.5,513.4 1968.3,513.8 1956.3,502.7C1944.3,491.6 1918,478.8 1895.3,482.2C1866.5,486.5 1858.7,505.7 1858.7,505.7C1856.8,503.5 1853.2,499.6 1845.8,495.9C1845.6,499.7 1845.7,503.5 1845.9,507.3C1849.5,564.2 1898.6,607.4 1955.6,603.8C1961.9,603.4 1968,602.4 1973.9,601C1971.3,561.5 1954.6,533.1 1954.6,533.1C1968.3,538.8 1982.4,538.8 2000.5,530.3C2018.6,521.8 2024.1,505.7 2020.9,492.3C2017.6,478.9 2001.6,483.8 2001.9,491.9Z" style="fill:#75bd8c;fill-rule:nonzero;stroke:#1c3b28;stroke-width:3px"/><circle id="circle6548" cx="1898.9" cy="510.9" r="9" style="fill:#51a1b5;stroke:#1c3b28;stroke-width:4px"/><circle id="circle6550" cx="1970.5" cy="479.5" r="9" style="fill:#4a77ab"/><path id="path6552" d="M1879.4,530.7C1877.2,535.3 1879.4,542.5 1890.2,545C1901,547.5 1914.9,544.9 1921,538.5C1927.5,531.6 1929.8,525 1924.5,521.2C1919.2,517.4 1913.2,521.6 1910.2,525.9C1907.2,530.2 1900.1,530.6 1892.5,527.7C1885,524.8 1882,525.1 1879.4,530.7Z" style="fill:#51a1b5;fill-rule:nonzero;stroke:#1c3b28;stroke-width:4px"/><path id="path6554" d="M1956.1,381.4C1964.3,378.4 1967.8,376.9 1970.5,375.7C1973.2,374.5 1975.5,375.3 1976.9,378.1C1978.2,380.9 1976.1,383.8 1970.9,385.8C1965.6,387.8 1957.9,390.8 1957.9,390.8" style="fill:#fbc16c;fill-rule:nonzero;stroke:#946f3a;stroke-width:2px"/><path id="path6556" d="M1950.6,411.4C1950.7,417.1 1948.7,422.6 1954.7,422.7C1960.6,422.8 1960.9,419.6 1960.9,416.8C1960.9,414 1960.8,412.1 1960.8,412.1" style="fill:#e09c5c;fill-rule:nonzero;stroke:#946f3a;stroke-width:2px"/><path id="path6558" d="M1913.2,410.2C1918.1,414 1925.8,412.7 1927.4,410.3C1929,407.9 1927,406.9 1925.1,408C1923.2,409.1 1917.9,409.6 1915.4,408.2C1912.9,406.9 1911.6,409 1913.2,410.2Z" style="fill:#fbc16c;fill-rule:nonzero;stroke:#946f3a;stroke-width:2px"/><path id="path6560" d="M1921.1,396C1921.1,406.2 1923.4,414.5 1933.1,415C1942.8,415.5 1951,414.9 1956.9,414.1C1962.8,413.3 1968,410.6 1967.8,400.4C1967.7,390.2 1967.7,375.2 1967.7,375.2C1967.7,375.2 1976.1,378.2 1983.3,374.4C1991,370.4 1993,367.7 1994.3,365.6C1995.4,363.7 1993.1,357.7 1988.2,361.5C1983.3,365.3 1978.1,367.6 1973,365.4C1967.9,363.2 1965.8,360.4 1963.1,356.1C1960.6,352.2 1955.4,348 1942.5,348.4C1928.5,348.9 1920.6,361.4 1920.9,373.5C1921.2,385.6 1921.1,396 1921.1,396Z" style="fill:#fbc16c;fill-rule:nonzero;stroke:#946f3a;stroke-width:2px"/><path id="path6562" d="M1939.7,414.1C1937.5,414.1 1935.3,414 1933.1,414C1925.5,413.7 1922.1,408.1 1922.1,396L1922.1,390.2C1928.7,390 1933.4,393.7 1933.7,398.2C1934.2,405.7 1940.5,408.2 1949.4,408.2L1954.6,408.2C1958.6,408.2 1963.3,408.2 1966.2,406C1964.6,411.2 1960.5,412.5 1956.8,413C1953,413.6 1947,414.1 1939.7,414.1Z" style="fill:#e09c5c;fill-rule:nonzero"/><path id="path6564" d="M1929.4,357.9C1927.3,350.9 1918.6,348.3 1913.8,354.1C1909,359.9 1903.9,372 1907.5,375.2C1911.1,378.4 1912.7,377.5 1914.6,376.7C1914.6,376.7 1916.9,380.8 1921.5,377.6C1926,374.4 1927.5,368 1927.5,368" style="fill:#fbc16c;fill-rule:nonzero;stroke:#946f3a;stroke-width:2px"/><path id="path6566" d="M1938,378C1943.7,382.2 1949.2,382.4 1952.7,379.8C1956.1,377.3 1958.3,374.6 1956.7,372.9C1955.1,371.2 1953.2,372.8 1951.2,374.2C1949.2,375.6 1946.1,376 1943.3,374.3C1940.5,372.6 1938.3,372.1 1937,373.5C1935.6,375 1936.5,376.9 1938,378Z" style="fill:#fbe6c6;fill-rule:nonzero;stroke:#668794;stroke-width:2px"/><path id="path6568" d="M1940.7,364.8C1940.7,368.6 1940.5,369 1939.5,369C1938.5,369 1938.2,368.5 1938.2,364.8C1938.2,360.2 1938.5,359.7 1939.5,359.7C1940.5,359.7 1940.7,360.3 1940.7,364.8Z" style="fill-rule:nonzero"/><path id="path6570" d="M1926,380.7C1917.8,377.7 1917.9,377.7 1915.3,376.5C1912.7,375.3 1910.3,376.1 1908.9,378.9C1907.6,381.7 1909.7,384.6 1914.9,386.6C1920.2,388.6 1924.3,390.1 1924.3,390.1" style="fill:#fbc16c;fill-rule:nonzero;stroke:#946f3a;stroke-width:2px"/><path id="path6572" d="M1928.4,412.5C1928.5,418.2 1926.5,423.7 1932.5,423.8C1938.4,423.9 1938.7,420.7 1938.7,417.9C1938.7,415.1 1938.6,413.2 1938.6,413.2" style="fill:#e09c5c;fill-rule:nonzero;stroke:#946f3a;stroke-width:2px"/><g id="g6574"><path id="path6576" d="M1930.3,478.8L1876.1,493.3C1869.7,495 1863.1,491.2 1861.4,484.8L1861.1,483.8C1859.4,477.4 1863.2,470.8 1869.6,469.1L1923.8,454.6C1930.2,452.9 1936.8,456.7 1938.5,463.1L1938.8,464.1C1940.5,470.5 1936.6,477.1 1930.3,478.8Z" style="fill:#fff;fill-rule:nonzero;stroke:#7d7d65;stroke-width:4px"/><path id="path6578" d="M2002.5,559.5L1969.6,568.3C1964,569.8 1958.2,566.4 1956.7,560.9C1955.2,555.3 1958.6,549.5 1964.1,548L1997,539.2C2002.6,537.7 2008.4,541.1 2009.9,546.6C2011.5,552.2 2008.1,558 2002.5,559.5Z" style="fill:#fff;fill-rule:nonzero;stroke:#7d7d65;stroke-width:4px"/><path id="path6580" d="M2037.3,515.3L2026.5,518.2C2020.9,519.7 2015.1,516.3 2013.6,510.8C2012.1,505.2 2015.5,499.4 2021,497.9L2031.8,495C2037.4,493.5 2043.2,496.9 2044.7,502.4C2046.2,508 2042.9,513.8 2037.3,515.3Z" style="fill:#fff;fill-rule:nonzero;stroke:#7d7d65;stroke-width:4px"/></g><path id="path6582" d="M1933.9,372.1L1931,372C1930,372 1929.2,371.1 1929.2,370.1L1929.2,369.7C1929.2,368.7 1930.1,367.9 1931.1,367.9L1934,368C1935,368 1935.8,368.9 1935.8,369.9L1935.8,370.3C1935.8,371.4 1934.9,372.2 1933.9,372.1Z" style="fill:#e68a4c;fill-rule:nonzero"/><path id="path6584" d="M1986.7,443.9C1993.8,442.5 2002.5,439.2 2007,431.9" style="fill:none;fill-rule:nonzero;stroke:#51a1b5;stroke-width:4px"/><path id="path6586" d="M1883.3,432.1C1887,441.6 1892.8,446.3 1905.8,448.1" style="fill:none;fill-rule:nonzero;stroke:#51a1b5;stroke-width:4px"/><circle id="circle6588" cx="2009.9" cy="424.7" r="2.1" style="fill:#51a1b5"/><path id="path6590" d="M1949,587.1C1921.3,587.1 1896.6,574 1880.8,553.7" style="fill:none;fill-rule:nonzero;stroke:#66a77c;stroke-width:12px"/><g id="g6592"><path id="polygon6594" d="M1934.9,271.4L1934.9,301.7L1921.4,301.7L1944,329.3L1966.6,301.7L1953.2,301.7L1953.2,271.4L1934.9,271.4Z" style="fill:#587faa;fill-rule:nonzero;stroke:#000;stroke-width:2px"/><path id="line6596" d="M1939.7,275.8L1939.7,286.3" style="fill:none;fill-rule:nonzero;stroke:#fff;stroke-width:4px"/><path id="line6598" d="M1939.7,293.4L1939.7,301.5" style="fill:none;fill-rule:nonzero;stroke:#fff;stroke-width:4px"/></g></g><g id="g6600" transform="matrix(1,0,0,1,-1343.38,-75.8)"><g id="g6602"><path id="path6604" d="M1784.9,522.9C1784.9,522.3 1784.5,521.9 1783.9,521.9L1754.6,521.9L1754.6,505.6L1783.9,505.6C1784.5,505.6 1784.9,505.2 1784.9,504.6L1784.9,493.2L1810,513.7L1784.9,534.2L1784.9,522.9Z" style="fill:#f1614e;fill-rule:nonzero"/><path id="path6606" d="M1785.9,495.4L1808.4,513.8L1785.9,532.2L1785.9,522.9C1785.9,521.8 1785,520.9 1783.9,520.9L1755.6,520.9L1755.6,506.6L1783.9,506.6C1785,506.6 1785.9,505.7 1785.9,504.6L1785.9,495.4M1783.9,491.1L1783.9,504.6L1753.6,504.6L1753.6,522.9L1783.9,522.9L1783.9,536.4L1811.5,513.8L1783.9,491.1Z" style="fill:#9c3b2d;fill-rule:nonzero"/></g><path id="line6608" d="M1757.9,509.1L1768.5,509.1" style="fill:none;fill-rule:nonzero;stroke:#fdbc61;stroke-width:4px"/><path id="line6610" d="M1775.6,509.1L1783.6,509.1" style="fill:none;fill-rule:nonzero;stroke:#fdbc61;stroke-width:4px"/></g><g id="g6612" transform="matrix(1,0,0,1,-1343.38,-75.8)"><g id="g6614"><path id="path6616" d="M2084.4,419.8L2107.7,402.1C2107.9,401.9 2108,401.7 2108.1,401.4C2108.1,401.1 2108.1,400.9 2107.9,400.7L2101,391.7L2133.4,392.8L2125.9,424.3L2119,415.3C2118.8,415 2118.5,414.9 2118.2,414.9C2118,414.9 2117.8,415 2117.6,415.1L2094.3,432.8L2084.4,419.8Z" style="fill:#f1614e;fill-rule:nonzero"/><path id="path6618" d="M2103.1,392.7L2132.1,393.7L2125.4,422L2119.8,414.6C2119.5,414.2 2119,413.9 2118.5,413.8L2118.2,413.8C2117.8,413.8 2117.3,413.9 2117,414.2L2094.5,431.3L2085.8,419.9L2108.3,402.8C2109.2,402.1 2109.3,400.9 2108.7,400L2103.1,392.7M2098.9,390.6L2107.1,401.3L2083,419.6L2094.1,434.2L2118.2,415.9L2126.4,426.6L2134.7,391.9L2098.9,390.6Z" style="fill:#9c3b2d;fill-rule:nonzero"/></g><path id="line6620" d="M2089.1,420.5L2097.5,414.2" style="fill:none;fill-rule:nonzero;stroke:#fdbc61;stroke-width:4px"/><path id="line6622" d="M2103.2,409.9L2109.6,405" style="fill:none;fill-rule:nonzero;stroke:#fdbc61;stroke-width:4px"/></g><path id="path6624" d="M47.916,462.8C61.216,458.7 67.816,463.6 71.516,470.5C79.716,485.9 69.616,491.6 42.716,501.7C15.716,511.8 2.316,516.9 2.316,516.9L1.016,460C15.716,454.9 26.316,462.9 28.016,468.8C27.916,468.9 37.516,464.9 47.916,462.8" style="fill:#587faa;fill-rule:nonzero;stroke:#000;stroke-width:2px;stroke-linecap:butt;stroke-linejoin:miter"/><path id="path6626" d="M2.416,474.9C4.516,474.5 6.316,474.3 7.816,474.3C12.416,474.3 15.916,475.8 17.816,482.9L18.316,484.9L20.316,484.3C20.416,484.3 30.716,480.9 42.716,476.9C45.216,476.1 47.616,475.6 49.816,475.6C57.516,475.6 62.016,480.9 63.116,491.5C58.016,494.6 50.516,497.6 41.116,501.1L3.316,515.3L2.416,474.9Z" style="fill:#2d3f68;fill-rule:nonzero"/><path id="path6628" d="M6.016,564.9L18.216,590.6C18.216,590.6 25.416,596.5 29.616,586.8L14.016,559.8L6.016,564.9Z" style="fill:#191b22;fill-rule:nonzero;stroke:#000;stroke-width:2px"/><g id="g6630" transform="matrix(1,0,0,1,-1343.38,-75.8)"><path id="path6632" d="M1346.3,567.9C1352.4,565.1 1358.1,563.7 1363.2,563.7C1375,563.7 1382.3,571.6 1382.5,584.8C1382.5,585.1 1382.7,585.4 1382.9,585.6C1383.1,585.7 1383.3,585.8 1383.5,585.8L1383.8,585.8C1383.8,585.8 1385.8,585.2 1388.6,585.2C1394.4,585.2 1402.1,587.5 1405.6,598.6C1410.7,614.5 1391,624.1 1376.6,631.1L1375.8,631.5C1361.7,638.4 1355.6,640.9 1347.1,644.5L1346.4,644.8L1346.3,567.9Z" style="fill:#587faa;fill-rule:nonzero"/><path id="path6634" d="M1363.2,562.6L1363.2,564.6C1374.6,564.6 1381.3,571.9 1381.5,584.7C1381.5,585.3 1381.8,585.9 1382.3,586.3C1382.6,586.6 1383.1,586.7 1383.5,586.7C1383.7,586.7 1383.9,586.7 1384.1,586.6C1384.1,586.6 1386,586.1 1388.7,586.1C1394.2,586.1 1401.4,588.3 1404.8,598.8C1409.7,613.9 1390.4,623.2 1376.3,630.1L1375.5,630.5C1361.8,637.2 1355.7,639.8 1347.6,643.2L1347.3,568.5C1353,565.9 1358.4,564.6 1363.2,564.6L1363.2,562.6M1363.2,562.6C1357.9,562.6 1351.9,564.1 1345.3,567.2L1345.6,646.1C1355.2,642 1361.1,639.6 1376.3,632.2C1390.9,625.1 1412.1,615.1 1406.6,598.1C1402.7,586.1 1394.1,584 1388.6,584C1385.6,584 1383.5,584.6 1383.5,584.6C1383.2,570.6 1375.3,562.6 1363.2,562.6Z" style="fill-rule:nonzero"/></g><path id="path6636" d="M3.916,509.1C5.016,509 6.116,508.9 7.116,508.9C20.016,508.9 23.616,519.8 24.316,528.9L24.616,532.2L27.416,530.4C27.516,530.4 33.716,526.4 40.316,526.4C47.616,526.4 52.616,531.2 55.216,540.8C49.116,546.3 40.116,550.7 32.816,554.3L32.116,554.7C18.416,561.4 12.316,564 4.216,567.4L3.916,509.1Z" style="fill:#2d3f68;fill-rule:nonzero"/><g id="g6638" transform="matrix(1,0,0,1,-1343.38,-75.8)"><path id="path6640" d="M1346.2,707.5C1353.2,704.7 1360,703.2 1366,703.2C1379.2,703.2 1387.1,710.2 1387.6,722.5C1388,730.5 1378.4,736.7 1378.3,736.7C1377.8,737 1377.7,737.6 1378,738C1378.2,738.3 1378.5,738.5 1378.9,738.5C1379.1,738.5 1379.2,738.5 1379.4,738.4C1379.6,738.3 1396,729.9 1408,724.1C1412,722.2 1416.2,721.2 1420.1,721.2C1427.5,721.2 1433.5,724.6 1436.6,730.4C1441.2,739.2 1433.8,745.3 1433.5,745.6C1433.1,745.9 1433,746.4 1433.3,746.9C1433.5,747.2 1433.8,747.4 1434.2,747.4C1434.3,747.4 1434.4,747.4 1434.5,747.3C1434.5,747.3 1437.8,746.1 1442.1,746.1C1447.7,746.1 1455.4,748.1 1460.2,757.8C1468.7,774.7 1455.5,782.3 1447.6,786.8C1438.6,792 1409.5,810.2 1407.8,811.2L1346.7,835.9L1346.2,707.5Z" style="fill:#587faa;fill-rule:nonzero"/><path id="path6642" d="M1366,702.1L1366,704.1C1372,704.1 1377.1,705.7 1380.6,708.6C1384.4,711.7 1386.4,716.4 1386.7,722.5C1387,729.9 1377.9,735.8 1377.8,735.9C1376.9,736.5 1376.6,737.7 1377.1,738.6C1377.5,739.2 1378.1,739.6 1378.8,739.6C1379.1,739.6 1379.4,739.5 1379.7,739.4C1379.9,739.3 1396.2,730.9 1408.3,725.1C1412.1,723.2 1416.2,722.3 1420,722.3C1427,722.3 1432.7,725.5 1435.6,731C1439.8,739.1 1433,744.7 1432.8,744.9C1432,745.5 1431.8,746.6 1432.3,747.4C1432.7,748 1433.3,748.4 1434,748.4C1434.2,748.4 1434.5,748.4 1434.7,748.3C1434.7,748.3 1437.8,747.2 1442,747.2C1449.7,747.2 1455.5,750.9 1459.2,758.3C1466.6,773.1 1456.8,780.4 1447,786C1438.1,791.1 1409.6,808.9 1407.3,810.4L1347.6,834.5L1347.2,708.2C1353.8,705.6 1360.3,704.2 1366,704.2L1366,702.1M1366,702.1C1359.7,702.1 1352.5,703.7 1345.1,706.8L1345.5,837.4L1408.1,812.1C1408.1,812.1 1438.6,793 1447.9,787.6C1455.6,783.2 1469.7,775 1460.9,757.3C1455.9,747.3 1447.9,745.1 1441.9,745.1C1437.3,745.1 1434,746.4 1434,746.4C1434,746.4 1442.4,739.7 1437.4,730C1434.1,723.7 1427.6,720.2 1420.1,720.2C1416.1,720.2 1411.8,721.2 1407.5,723.2C1395.3,729.1 1378.9,737.5 1378.9,737.5C1378.9,737.5 1389.1,731 1388.7,722.4C1388.1,708.6 1378.8,702.1 1366,702.1Z" style="fill-rule:nonzero"/></g><path id="path6644" d="M3.816,646.2C5.316,645.9 6.716,645.8 8.016,645.8C12.516,645.8 16.116,647.3 18.416,650C20.916,652.9 21.916,657.2 21.216,662.2L20.916,664.2L22.916,664.5C22.916,664.5 25.916,665 27.616,667.6C28.916,669.6 29.216,672.5 28.316,676L27.316,680L31.016,678.4C31.216,678.3 47.116,671.3 56.716,666.7C59.016,665.6 61.816,664 64.216,663.2C69.116,661.5 74.916,664.4 76.716,666.8C78.716,669.5 82.516,678.7 77.916,683.4L65.416,693.2L74.716,689.3C74.816,689.2 87.816,681.8 97.616,681.8C99.916,681.8 101.716,682.2 103.016,683.1C109.616,687.2 114.316,693.8 115.716,700.8C112.516,705.3 107.216,708.4 103.616,710.5C94.716,715.6 66.216,733.4 63.916,734.9L4.216,759L3.816,646.2Z" style="fill:#2d3f68;fill-rule:nonzero"/><path id="polygon6646" d="M30.116,786L43.216,804.6L18.716,804.6L30.116,786Z" style="fill:#191b22;fill-rule:nonzero;stroke:#000;stroke-width:2px"/><g id="g6648" transform="matrix(1,0,0,1,-1343.38,-75.8)"><path id="path6650" d="M1346.3,879.4L1345.8,808.9C1357.5,801.9 1367.2,798.3 1374.5,798.3C1382.1,798.3 1386.8,802.2 1388.5,809.8C1388.6,810.1 1388.8,810.4 1389.1,810.5C1389.2,810.5 1389.3,810.6 1389.5,810.6C1389.7,810.6 1389.9,810.5 1390.1,810.4C1390.2,810.3 1402.9,801.3 1415.9,801.3C1423.2,801.3 1429.2,804.2 1433.8,809.8C1439.3,816.6 1441.5,823.2 1440.3,829.2C1438.4,838.3 1429.5,844.7 1422.3,848.5C1418.1,850.7 1411.2,854.2 1403.3,858.2C1388.7,865.6 1370.6,874.9 1362.7,879.3L1346.3,879.3L1346.3,879.4Z" style="fill:#587faa;fill-rule:nonzero"/><path id="path6652" d="M1374.4,799.3C1381.5,799.3 1385.9,802.9 1387.4,810C1387.5,810.7 1388,811.2 1388.6,811.4C1388.8,811.5 1389.1,811.5 1389.3,811.5C1389.7,811.5 1390.1,811.4 1390.5,811.1C1390.6,811 1403,802.2 1415.7,802.2C1422.7,802.2 1428.5,804.9 1432.9,810.3C1438.2,816.9 1440.3,823.1 1439.2,828.9C1437.3,838.1 1427.4,844.5 1421.7,847.5C1417.5,849.7 1410.7,853.2 1402.8,857.2C1388.3,864.6 1370.4,873.7 1362.3,878.2L1347.3,878.2L1346.8,809.3C1358.1,802.7 1367.4,799.3 1374.4,799.3M1374.4,797.3C1367.3,797.3 1357.6,800.6 1344.7,808.3L1345.2,880.3L1362.7,880.3C1374.5,873.6 1410.1,855.8 1422.5,849.3C1434.9,842.8 1450.8,829.3 1434.4,809.1C1429,802.5 1422.3,800.2 1415.7,800.2C1402.2,800.2 1389.3,809.5 1389.3,809.5C1387.8,802.2 1383.1,797.3 1374.4,797.3Z" style="fill-rule:nonzero"/></g><path id="path6654" d="M3.816,802.6L3.416,747C12.216,743 18.516,741.2 23.016,741.2C27.516,741.2 32.816,742.7 33.916,754.4L34.216,757.1L36.716,756.1C37.516,755.8 57.016,747.7 64.716,743.8C66.416,742.9 69.616,742 73.216,742C79.316,742 89.616,744.6 91.416,762C87.616,766.6 82.216,769.9 78.316,772C74.116,774.2 67.216,777.7 59.316,781.7C44.816,789.1 26.916,798.2 18.816,802.7L3.816,802.7L3.816,802.6Z" style="fill:#2d3f68;fill-rule:nonzero"/><path id="path6656" d="M262.516,805C382.616,671.4 508.416,629.7 545.816,619.8C534.416,607.4 521.116,602.7 508.316,591.5L508.116,584.3C365.716,629.4 254.116,722 182.116,803.3C182.116,803.3 181.916,803.9 181.416,805L262.516,805Z" style="fill:#191b22;fill-rule:nonzero;stroke:#000;stroke-width:2px"/><g id="g6658" transform="matrix(1,0,0,1,-1343.38,-75.8)"><path id="path6660" d="M1537.3,879.8C1577.9,834.8 1623,794.6 1671.5,760.3C1731,718.2 1793.8,686.6 1858.2,666.2C1868.3,675.4 1878.1,685.1 1887.3,695C1849.2,705.4 1724.1,747.8 1605.4,879.8L1537.3,879.8Z" style="fill:#2d3f68;fill-rule:nonzero"/><path id="path6662" d="M1858,667.3C1867.6,676 1876.8,685.1 1885.5,694.5C1864.8,700.2 1825.8,713.3 1777.6,740C1714.5,775 1656.4,821.7 1605,878.8L1539.6,878.8C1579.7,834.5 1624.3,794.9 1672.1,761.1C1731.4,719.2 1793.9,687.7 1858,667.3M1858.1,665.2C1717.7,709.6 1607.2,800.4 1535.1,880.8L1605.9,880.8C1726,747.2 1851.8,705.5 1889.2,695.6C1879.5,685 1869.3,674.9 1858.6,665.2L1858.1,665.2Z" style="fill-rule:nonzero"/></g><circle id="circle6664" cx="893.216" cy="215.4" r="56.5" style="fill:none;stroke:#95b893;stroke-width:2px;stroke-linecap:butt;stroke-linejoin:miter"/><g id="g6666" transform="matrix(1,0,0,1,-1343.38,-75.8)"><path id="path6668" d="M2236.6,202.6C2285.4,202.6 2325.2,242.3 2325.2,291.2C2325.2,340.1 2285.5,379.8 2236.6,379.8C2187.7,379.8 2148,340 2148,291.2C2148,242.4 2187.7,202.6 2236.6,202.6M2236.6,199.3C2185.9,199.3 2144.8,240.4 2144.8,291.1C2144.8,341.8 2185.9,382.9 2236.6,382.9C2287.3,382.9 2328.4,341.8 2328.4,291.1C2328.4,240.4 2287.3,199.3 2236.6,199.3Z" style="fill:#95b893;fill-rule:nonzero"/></g><circle id="circle6670" cx="1059.12" cy="410" r="46.3" style="fill:none;stroke:#95b893;stroke-width:3.25px;stroke-linecap:butt;stroke-linejoin:miter"/><g id="g6672" transform="matrix(1,0,0,1,-1343.38,-75.8)"><path id="path6674" d="M2402.5,414.1C2442,414.1 2474.2,446.3 2474.2,485.8C2474.2,525.3 2442,557.5 2402.5,557.5C2363,557.5 2330.8,525.3 2330.8,485.8C2330.8,446.3 2362.9,414.1 2402.5,414.1M2402.5,410.8C2361.1,410.8 2327.5,444.4 2327.5,485.8C2327.5,527.2 2361.1,560.8 2402.5,560.8C2443.9,560.8 2477.5,527.2 2477.5,485.8C2477.5,444.4 2443.9,410.8 2402.5,410.8Z" style="fill:#95b893;fill-rule:nonzero"/></g><circle id="circle6676" cx="893.216" cy="569.6" r="51.1" style="fill:none;stroke:#95b893;stroke-width:3.25px;stroke-linecap:butt;stroke-linejoin:miter"/><circle id="circle6678" cx="893.216" cy="569.6" r="94.7" style="fill:none;stroke:#95b893;stroke-width:3.25px;stroke-linecap:butt;stroke-linejoin:miter"/><circle id="circle6680" cx="893.216" cy="569.6" r="76.1" style="fill:none;stroke:#95b893;stroke-width:3.25px;stroke-linecap:butt;stroke-linejoin:miter"/><circle id="circle6688" cx="810.216" cy="523.5" r="11.7" style="fill:#51a1b5;stroke:#31446e;stroke-width:4px"/><circle id="circle6690" cx="985.016" cy="405.9" r="11.7" style="fill:#a7658d;stroke:#4b2254;stroke-width:4px"/><circle id="circle6692" cx="1090.62" cy="445.3" r="8.1" style="fill:#a8c875;stroke:#4b2254;stroke-width:2.75px"/><circle id="circle6694" cx="951.716" cy="617.1" r="11.7" style="fill:#fbe6c6;stroke:#668794;stroke-width:4px"/><circle id="circle6696" cx="956.316" cy="617.4" r="7" style="fill:#668794"/><circle id="circle6698" cx="829.716" cy="280.8" r="19.9" style="fill:#fbe6c6;stroke:#668794;stroke-width:4px"/><circle id="circle6700" cx="823.916" cy="286.1" r="11.9" style="fill:#668794"/><circle id="circle6702" cx="958.616" cy="499.7" r="14.2" style="fill:#a34c4c;stroke:#381916;stroke-width:4px"/><circle id="circle6704" cx="951.616" cy="500.4" r="2.6" style="fill:#381916"/><circle id="circle6706" cx="954.616" cy="492.3" r="2.6" style="fill:#381916"/><circle id="circle6708" cx="962.516" cy="493.6" r="2.6" style="fill:#381916"/><g id="ellipse6710" transform="matrix(0.279485,-0.96015,0.96015,0.279485,0,0)"><ellipse cx="-116.282" cy="1128.46" rx="6.6" ry="8.2" style="fill:#ad6a3b;stroke:#663f09;stroke-width:1.65px;stroke-linecap:butt;stroke-linejoin:miter"/></g><g id="ellipse6712" transform="matrix(0.518102,-0.855319,0.855319,0.518102,0,0)"><ellipse cx="198.55" cy="1138.64" rx="5.4" ry="4.4" style="fill:#ad6a3b;stroke:#663f09;stroke-width:1.65px;stroke-linecap:butt;stroke-linejoin:miter"/></g><g id="ellipse6714" transform="matrix(0.948501,-0.316775,0.316775,0.948501,0,0)"><ellipse cx="892.779" cy="717.475" rx="4.4" ry="4.8" style="fill:#ad6a3b;stroke:#663f09;stroke-width:1.65px;stroke-linecap:butt;stroke-linejoin:miter"/></g><circle id="circle6716" cx="949.716" cy="234.1" r="14.2" style="fill:#ce8c59;stroke:#381916;stroke-width:4px"/><circle id="circle6718" cx="942.716" cy="234.7" r="2.6" style="fill:#381916"/><circle id="circle6720" cx="945.716" cy="226.7" r="2.6" style="fill:#381916"/><circle id="circle6722" cx="953.716" cy="228" r="2.6" style="fill:#381916"/><g id="g6724" transform="matrix(1,0,0,1,-1343.38,-75.8)"><path id="path6726" d="M1606.2,856.8C1625.2,836.8 1644.3,822.1 1644.3,822.1" style="fill:#ce8c59;fill-rule:nonzero;stroke:#587faa;stroke-width:4px"/><path id="path6728" d="M1621.3,816.8C1642.3,797.3 1663.8,782.6 1663.8,782.6" style="fill:#ce8c59;fill-rule:nonzero;stroke:#587faa;stroke-width:4px"/><path id="path6730" d="M1675.5,791.4C1698,772.4 1717.5,760.6 1717.5,760.6" style="fill:#ce8c59;fill-rule:nonzero;stroke:#587faa;stroke-width:4px"/><path id="path6732" d="M1717,743.5C1739,728.4 1759,719.6 1759,719.6" style="fill:#ce8c59;fill-rule:nonzero;stroke:#587faa;stroke-width:4px"/><path id="path6734" d="M1768.8,733.2C1792.2,718.5 1820.1,707.3 1820.1,707.3" style="fill:#ce8c59;fill-rule:nonzero;stroke:#587faa;stroke-width:4px"/><path id="path6736" d="M1792.7,703.9C1816.6,692.2 1841.1,683.4 1841.1,683.4" style="fill:#ce8c59;fill-rule:nonzero;stroke:#587faa;stroke-width:4px"/><path id="path6738" d="M1844,697.6C1858.7,690.8 1869.4,687.8 1869.4,687.8" style="fill:#ce8c59;fill-rule:nonzero;stroke:#587faa;stroke-width:4px"/><path id="path6740" d="M1554.4,879.3C1575.4,856.3 1596.4,838.3 1596.4,838.3" style="fill:#ce8c59;fill-rule:nonzero;stroke:#587faa;stroke-width:4px"/></g><g id="g6742" transform="matrix(1,0,0,1,-1343.38,-75.8)"><g id="g6744"><path id="line6746" d="M2402.5,485.8L2401,487.2" style="fill:none;fill-rule:nonzero;stroke:#95b893;stroke-width:2px;stroke-linecap:butt;stroke-linejoin:miter"/><path id="line6748" d="M2398.2,489.9L2309.7,575" style="fill:none;fill-rule:nonzero;stroke:#95b893;stroke-width:2px;stroke-linecap:butt;stroke-linejoin:miter;stroke-dasharray:3.9,3.9"/><path id="line6750" d="M2308.3,576.4L2306.8,577.8" style="fill:none;fill-rule:nonzero;stroke:#95b893;stroke-width:2px;stroke-linecap:butt;stroke-linejoin:miter"/></g></g><g id="g6752" transform="matrix(1,0,0,1,-1343.38,-75.8)"><g id="g6754"><path id="line6756" d="M2236.6,550.7L2236.6,548.7" style="fill:none;fill-rule:nonzero;stroke:#95b893;stroke-width:2px;stroke-linecap:butt;stroke-linejoin:miter"/><path id="line6758" d="M2236.6,544.6L2236.6,295.2" style="fill:none;fill-rule:nonzero;stroke:#95b893;stroke-width:2px;stroke-linecap:butt;stroke-linejoin:miter;stroke-dasharray:4.06,4.06"/><path id="polyline6760" d="M2236.6,293.2L2236.6,291.2L2237.9,292.7" style="fill:none;fill-rule:nonzero;stroke:#95b893;stroke-width:2px;stroke-linecap:butt;stroke-linejoin:miter"/><path id="line6762" d="M2240.4,295.7L2351.9,426.5" style="fill:none;fill-rule:nonzero;stroke:#95b893;stroke-width:2px;stroke-linecap:butt;stroke-linejoin:miter;stroke-dasharray:3.95,3.95"/><path id="line6764" d="M2353.2,428L2354.5,429.5" style="fill:none;fill-rule:nonzero;stroke:#95b893;stroke-width:2px;stroke-linecap:butt;stroke-linejoin:miter"/></g></g><g id="g6766" transform="matrix(1,0,0,1,-1343.38,-75.8)"><circle id="circle6768" cx="2236.6" cy="291.2" r="33.8" style="fill:#ebb548;stroke:#663f09;stroke-width:3.31px"/><g id="g6770"><circle id="circle6772" cx="2218.8" cy="273.6" r="3" style="fill:#fff"/></g></g><g id="g6774" transform="matrix(1,0,0,1,-1343.38,-75.8)"><circle id="circle6776" cx="2236.6" cy="291.2" r="33.8" style="fill:#ebb548;stroke:#663f09;stroke-width:3.31px"/><g id="g6778"><circle id="circle6780" cx="2218.8" cy="273.6" r="3" style="fill:#fff"/></g></g><circle id="circle6906" cx="1090.62" cy="445.3" r="3.9" style="fill:#b4dcf5"/></svg>